<?xml version="1.0" encoding="UTF-8"?>
<!--
  - Copyright 2021-2022 limbang and contributors.
  -
  - 此源代码的使用受 GNU AGPLv3 许可证的约束，该许可证可在"LICENSE"文件中找到。
  - Use of this source code is governed by the GNU AGPLv3 license that can be found in the "LICENSE" file.
  -->

<svg width="100%" height="100%" viewBox="-10 0 74 21" version="1.1" xmlns="http://www.w3.org/2000/svg">
    <title>Slice 1</title>
    <g id="页面-1" stroke="none" stroke-width="1" fill="none" fill-rule="evenodd">
        <g id="2" transform="translate(0.079024, 0.963303)">
            <g id="编组" transform="translate(0.000000, 0.000000)">
                <g fill="#333333" id="形状">
                    <g>
                        <path d="M5.35117647,0 L5.35117647,0 C6.49431373,0 7.59323529,0.335392157 8.64794118,1.00617647 L8.64794118,1.00617647 C8.89382353,1.16147059 9.19254902,1.4127451 9.54411765,1.76 L9.54411765,1.76 C9.95176471,2.23235294 10.2332353,2.65401961 10.3885294,3.025 L10.3885294,3.025 C10.6516667,3.62892157 10.7832353,4.31480392 10.7832353,5.08264706 L10.7832353,5.08264706 L10.7832353,5.25088235 C10.7832353,6.07264706 10.505,6.80598039 9.94852941,7.45088235 L9.94852941,7.45088235 C9.80617647,7.60617647 9.735,7.77656863 9.735,7.96205882 L9.735,7.96205882 L9.735,7.98147059 C9.735,8.09578431 9.82127451,8.34382353 9.99382353,8.72558824 L9.99382353,8.72558824 C10.4963725,9.93558824 10.7692157,10.6031373 10.8123529,10.7282353 L10.8123529,10.7282353 C10.8360784,10.842549 10.8533333,10.9622549 10.8641176,11.0873529 L10.8641176,11.0873529 C10.8641176,11.589902 10.6279412,12.0029412 10.1555882,12.3264706 L10.1555882,12.3264706 C9.53872549,12.6327451 9.15264706,12.7858824 8.99735294,12.7858824 L8.99735294,12.7858824 L8.79029412,12.7858824 C8.40852941,12.7858824 8.05911765,12.6090196 7.74205882,12.2552941 L7.74205882,12.2552941 C6.63990196,10.5492157 6.03490196,9.61852941 5.92705882,9.46323529 L5.92705882,9.46323529 C5.80196078,9.31441176 5.5927451,9.24 5.29941176,9.24 L5.29941176,9.24 C5.11823529,9.24 4.83676471,9.20980392 4.455,9.14941176 L4.455,9.14941176 L4.41941176,9.14941176 C4.17352941,9.14941176 4.00529412,9.28960784 3.91470588,9.57 L3.91470588,9.57 C3.83705882,10.7864706 3.78960784,11.487451 3.77235294,11.6729412 L3.77235294,11.6729412 C3.67745098,12.0245098 3.51892157,12.2908824 3.29676471,12.4720588 L3.29676471,12.4720588 C3.00990196,12.6985294 2.71656863,12.8117647 2.41676471,12.8117647 L2.41676471,12.8117647 C1.49578431,12.775098 1.03529412,12.7395098 1.03529412,12.705 L1.03529412,12.705 C0.843333333,12.6553922 0.642745098,12.5410784 0.433529412,12.3620588 L0.433529412,12.3620588 C0.144509804,12.0514706 2.87351842e-16,11.7193137 2.87351842e-16,11.3655882 L2.87351842e-16,11.3655882 C2.87351842e-16,11.2944118 0.171470588,8.19715686 0.514411765,2.07382353 L0.514411765,2.07382353 C0.54245098,1.50009804 0.583431373,1.17656863 0.637352941,1.10323529 L0.637352941,1.10323529 C0.680490196,0.954411765 0.776470588,0.799117647 0.925294118,0.637352941 L0.925294118,0.637352941 C1.22509804,0.331078431 1.55186275,0.177941176 1.90558824,0.177941176 L1.90558824,0.177941176 L1.91529412,0.177941176 C2.07058824,0.177941176 2.66264706,0.211372549 3.69147059,0.278235294 L3.69147059,0.278235294 C4.2177451,0.092745098 4.77098039,0 5.35117647,0 Z M4.11205882,5.83647059 L4.11205882,5.83647059 C4.11205882,6.03921569 4.22637255,6.1977451 4.455,6.31205882 L4.455,6.31205882 C4.69441176,6.37676471 4.91872549,6.40911765 5.12794118,6.40911765 L5.12794118,6.40911765 C5.86343137,6.40911765 6.39617647,6.13735294 6.72617647,5.59382353 L6.72617647,5.59382353 C6.82754902,5.37813725 6.87823529,5.15921569 6.87823529,4.93705882 L6.87823529,4.93705882 L6.87823529,4.79470588 C6.87823529,4.22529412 6.63343137,3.78529412 6.14382353,3.47470588 L6.14382353,3.47470588 C5.79656863,3.27196078 5.41911765,3.17058824 5.01147059,3.17058824 L5.01147059,3.17058824 L4.86911765,3.17058824 C4.43127451,3.17058824 4.21235294,3.37980392 4.21235294,3.79823529 L4.21235294,3.79823529 C4.21235294,3.86941176 4.17892157,4.54882353 4.11205882,5.83647059 Z"/>
                    </g>
                </g>
                <g transform="translate(11.158224, 0.177941)">
                    <rect id="矩形" x="0.000916666914" y="4.1109471e-07" width="4.35445293" height="1"/>
                    <g fill="#00FF00" id="形状">
                        <g>
                            <path d="M2.09323529,0 L2.09323529,0 C2.62598039,0 3.10480392,0.195196078 3.52970588,0.585588235 L3.52970588,0.585588235 C3.95460784,1.0277451 4.16705882,1.50009804 4.16705882,2.00264706 L4.16705882,2.00264706 L4.16705882,2.17411765 C4.16705882,2.58176471 4.01715686,2.98617647 3.71735294,3.38735294 L3.71735294,3.38735294 C3.26872549,3.91362745 2.72088235,4.17676471 2.07382353,4.17676471 L2.07382353,4.17676471 C1.4095098,4.17676471 0.841176471,3.88343137 0.368823529,3.29676471 L0.368823529,3.29676471 C0.122941176,2.91284314 0,2.51490196 0,2.10294118 L0,2.10294118 L0,2.04794118 C0,1.58637255 0.165,1.14960784 0.495,0.737647059 L0.495,0.737647059 C0.937156863,0.245882353 1.46990196,0 2.09323529,0 Z M2.73058824,4.59735294 L2.73058824,4.59735294 C3.1727451,4.59735294 3.55882353,4.82813725 3.88882353,5.28970588 L3.88882353,5.28970588 C4.02686275,5.50539216 4.09588235,5.82568627 4.09588235,6.25058824 L4.09588235,6.25058824 L4.35470588,11.1617647 C4.35470588,11.6103922 4.16382353,11.99 3.78205882,12.3005882 L3.78205882,12.3005882 C3.54696078,12.5054902 3.18137255,12.6079412 2.68529412,12.6079412 L2.68529412,12.6079412 C2.50627451,12.6251961 2.31754902,12.6338235 2.11911765,12.6338235 L2.11911765,12.6338235 C1.87323529,12.6338235 1.62196078,12.5497059 1.36529412,12.3814706 L1.36529412,12.3814706 C0.953333333,12.0946078 0.747352941,11.6492157 0.747352941,11.0452941 L0.747352941,11.0452941 C0.572647059,7.76470588 0.485294118,6.08882353 0.485294118,6.01764706 L0.485294118,6.01764706 C0.485294118,5.70058824 0.620098039,5.38568627 0.889705882,5.07294118 L0.889705882,5.07294118 C1.15931373,4.77529412 1.56588235,4.62647059 2.10941176,4.62647059 L2.10941176,4.62647059 C2.3445098,4.60705882 2.55156863,4.59735294 2.73058824,4.59735294 Z"/>
                        </g>
                    </g>
                </g>
                <g transform="translate(15.807362, 3.707647)" fill="#333333" id="路径">
                    <g>
                        <path d="M6.84264706,0 L6.84264706,0 L6.90411765,0 C7.96313725,0 8.87333333,0.328921569 9.63470588,0.986764706 L9.63470588,0.986764706 C9.94529412,1.28009804 10.1728431,1.54647059 10.3173529,1.78588235 L10.3173529,1.78588235 C10.4597059,2.02529412 10.5794118,2.27656863 10.6764706,2.53970588 L10.6764706,2.53970588 C10.7713725,2.76186275 10.8608824,3.0972549 10.945,3.54588235 L10.945,3.54588235 C10.992451,3.80901961 11.0614706,4.71058824 11.1520588,6.25058824 L11.1520588,6.25058824 C11.2059804,6.87176471 11.2329412,7.26323529 11.2329412,7.425 L11.2329412,7.425 C11.2329412,7.88009804 11.0442157,8.26617647 10.6667647,8.58323529 L10.6667647,8.58323529 C10.4920588,8.73852941 10.1987255,8.81617647 9.78676471,8.81617647 L9.78676471,8.81617647 C9.68539216,8.81617647 9.6045098,8.81941176 9.54411765,8.82588235 L9.54411765,8.82588235 C9.20980392,8.82588235 8.91323529,8.66088235 8.65441176,8.33088235 L8.65441176,8.33088235 C8.43872549,8.08068627 8.33088235,7.70431373 8.33088235,7.20176471 L8.33088235,7.20176471 L8.23382353,4.94676471 C8.18637255,4.61676471 8.12598039,4.3622549 8.05264706,4.18323529 L8.05264706,4.18323529 C7.9577451,3.88343137 7.81754902,3.62352941 7.63205882,3.40352941 L7.63205882,3.40352941 C7.42931373,3.19431373 7.27078431,3.08970588 7.15647059,3.08970588 L7.15647059,3.08970588 L7.13058824,3.08970588 C6.99686275,3.11990196 6.93,3.19431373 6.93,3.31294118 L6.93,3.31294118 L7.12088235,7.48 C7.12088235,7.89843137 6.9472549,8.26941176 6.6,8.59294118 L6.6,8.59294118 C6.4145098,8.7654902 6.09745098,8.85176471 5.64882353,8.85176471 L5.64882353,8.85176471 C5.61215686,8.85176471 5.52156863,8.85823529 5.37705882,8.87117647 L5.37705882,8.87117647 C5.06647059,8.87117647 4.77637255,8.70941176 4.50676471,8.38588235 L4.50676471,8.38588235 C4.35794118,8.14 4.28029412,7.97823529 4.27382353,7.90058824 L4.27382353,7.90058824 C4.22637255,7.85313725 4.19078431,7.44333333 4.16705882,6.67117647 L4.16705882,6.67117647 C4.11313725,5.24117647 4.06784314,4.52617647 4.03117647,4.52617647 L4.03117647,4.52617647 C3.96,4.125 3.84352941,3.80470588 3.68176471,3.56529412 L3.68176471,3.56529412 C3.47254902,3.30647059 3.23313725,3.17705882 2.96352941,3.17705882 L2.96352941,3.17705882 L2.92794118,3.17705882 L3.14147059,7.67735294 C3.14147059,8.1195098 2.95058824,8.50558824 2.56882353,8.83558824 L2.56882353,8.83558824 C2.37039216,8.97794118 2.09754902,9.04911765 1.75029412,9.04911765 L1.75029412,9.04911765 C1.75029412,9.06205882 1.63705882,9.06852941 1.41058824,9.06852941 L1.41058824,9.06852941 C1.00941176,9.06852941 0.66754902,8.82588235 0.385,8.34058824 L0.385,8.34058824 C0.277156863,8.14431373 0.223235294,7.78196078 0.223235294,7.25352941 L0.223235294,7.25352941 C0.0744117647,3.9254902 4.31027763e-16,2.15686275 4.31027763e-16,1.94764706 L4.31027763e-16,1.94764706 C4.31027763e-16,1.51196078 0.18872549,1.12911765 0.566176471,0.799117647 L0.566176471,0.799117647 C0.781862745,0.654607843 1.0245098,0.582352941 1.29411765,0.582352941 L1.29411765,0.582352941 C1.45588235,0.480980392 1.64676471,0.401176471 1.86676471,0.342941176 L1.86676471,0.342941176 C2.19676471,0.252352941 2.51382353,0.207058824 2.81794118,0.207058824 L2.81794118,0.207058824 L2.97970588,0.207058824 C3.41754902,0.207058824 3.90607843,0.299803922 4.44529412,0.485294118 L4.44529412,0.485294118 L4.51647059,0.485294118 C4.55313725,0.485294118 4.77421569,0.410882353 5.17970588,0.262058824 L5.17970588,0.262058824 C5.76205882,0.0873529412 6.31637255,0 6.84264706,0 Z"/>
                    </g>
                </g>
                <g transform="translate(27.334964, 4.066765)" fill="#333333" id="路径">
                    <g>
                        <path d="M7.37,0 L7.37,0 C8.19607843,0.0301960784 8.60911765,0.063627451 8.60911765,0.100294118 L8.60911765,0.100294118 C8.95637255,0.208137255 9.21627451,0.395784314 9.38882353,0.663235294 L9.38882353,0.663235294 C9.55705882,0.915588235 9.64117647,1.17333333 9.64117647,1.43647059 L9.64117647,1.43647059 C9.43196078,5.42882353 9.31872549,7.425 9.30147059,7.425 L9.30147059,7.425 C9.18068627,7.82617647 8.98872549,8.10764706 8.72558824,8.26941176 L8.72558824,8.26941176 C8.47970588,8.44196078 8.22843137,8.52823529 7.97176471,8.52823529 L7.97176471,8.52823529 L7.96205882,8.52823529 C7.86715686,8.52823529 7.19637255,8.49588235 5.94970588,8.43117647 L5.94970588,8.43117647 C5.17323529,8.64039216 4.48196078,8.745 3.87588235,8.745 L3.87588235,8.745 L3.795,8.745 C2.61088235,8.745 1.67480392,8.35245098 0.986764706,7.56735294 L0.986764706,7.56735294 C0.328921569,6.77147059 -1.43675921e-16,5.74588235 -1.43675921e-16,4.49058824 L-1.43675921e-16,4.49058824 L-1.43675921e-16,1.55294118 C-1.43675921e-16,1.01372549 0.263137255,0.592058824 0.789411765,0.287941176 L0.789411765,0.287941176 C1.00941176,0.186568627 1.26931373,0.135882353 1.56911765,0.135882353 L1.56911765,0.135882353 C1.70715686,0.116470588 1.87215686,0.106764706 2.06411765,0.106764706 L2.06411765,0.106764706 C2.54941176,0.106764706 2.95058824,0.352647059 3.26764706,0.844411765 L3.26764706,0.844411765 C3.38627451,1.04715686 3.44558824,1.35558824 3.44558824,1.76970588 L3.44558824,1.76970588 C3.53617647,3.29460784 3.59333333,4.20156863 3.61705882,4.49058824 L3.61705882,4.49058824 C3.73568627,5.30372549 4.12176471,5.71029412 4.77529412,5.71029412 L4.77529412,5.71029412 C5.03196078,5.71029412 5.29509804,5.65637255 5.56470588,5.54852941 L5.56470588,5.54852941 C5.74372549,5.45794118 5.83323529,5.23686275 5.83323529,4.88529412 L5.83323529,4.88529412 C5.93676471,2.35313725 6.00039216,1.08705882 6.02411765,1.08705882 L6.02411765,1.08705882 C6.09529412,0.804509804 6.2354902,0.568333333 6.44470588,0.378529412 L6.44470588,0.378529412 C6.73156863,0.126176471 7.04,0 7.37,0 Z"/>
                    </g>
                </g>
                <g transform="translate(37.269777, 3.919020)" fill="#333333" id="路径">
                    <g transform="translate(0.000000, 0.000000)">
                        <path d="M3.98588235,0.0215686275 L3.98588235,0.0215686275 L4.23823529,0.0215686275 C4.82490196,-0.0431372549 5.40833333,0.037745098 5.98852941,0.264215686 L5.98852941,0.264215686 C6.41990196,0.587745098 6.63558824,0.980294118 6.63558824,1.44186275 L6.63558824,1.44186275 C6.63558824,1.69852941 6.56333333,1.99186275 6.41882353,2.32186275 L6.41882353,2.32186275 C6.24627451,2.63245098 5.98313725,2.85029412 5.62941176,2.97539216 L5.62941176,2.97539216 C5.24764706,3.02284314 4.87666667,3.04656863 4.51647059,3.04656863 L4.51647059,3.04656863 L4.24794118,3.04656863 C4.0322549,3.04656863 3.84676471,3.06166667 3.69147059,3.09186275 L3.69147059,3.09186275 C3.85754902,5.86990196 3.94058824,7.33656863 3.94058824,7.49186275 L3.94058824,7.49186275 C3.94058824,7.83911765 3.78205882,8.16803922 3.465,8.47862745 L3.465,8.47862745 C3.27519608,8.65333333 3.04764706,8.76764706 2.78235294,8.82156863 L2.78235294,8.82156863 C2.26901961,8.86901961 1.89803922,8.8927451 1.66941176,8.8927451 L1.66941176,8.8927451 C1.22078431,8.8927451 0.83254902,8.66519608 0.504705882,8.21009804 L0.504705882,8.21009804 C0.360196078,7.99441176 0.287941176,7.65901961 0.287941176,7.20392157 L0.287941176,7.20392157 C0.0959803922,3.7745098 0,1.95843137 0,1.75568627 L0,1.75568627 C0,1.34156863 0.200588235,0.975980392 0.601764706,0.658921569 L0.601764706,0.658921569 C0.81745098,0.473431373 1.19813725,0.380686275 1.74382353,0.380686275 L1.74382353,0.380686275 C1.92931373,0.369901961 2.10833333,0.364509804 2.28088235,0.364509804 L2.28088235,0.364509804 C2.82009804,0.135882353 3.38843137,0.0215686275 3.98588235,0.0215686275 Z"/>
                    </g>
                </g>
                <g transform="translate(44.200773, 4.066765)" fill="#333333" id="路径">
                    <g>
                        <path d="M7.37,0 L7.37,0 C8.19607843,0.0301960784 8.60911765,0.063627451 8.60911765,0.100294118 L8.60911765,0.100294118 C8.95637255,0.208137255 9.21627451,0.395784314 9.38882353,0.663235294 L9.38882353,0.663235294 C9.55705882,0.915588235 9.64117647,1.17333333 9.64117647,1.43647059 L9.64117647,1.43647059 C9.43196078,5.42882353 9.31872549,7.425 9.30147059,7.425 L9.30147059,7.425 C9.18068627,7.82617647 8.98872549,8.10764706 8.72558824,8.26941176 L8.72558824,8.26941176 C8.47970588,8.44196078 8.22843137,8.52823529 7.97176471,8.52823529 L7.97176471,8.52823529 L7.96205882,8.52823529 C7.86715686,8.52823529 7.19637255,8.49588235 5.94970588,8.43117647 L5.94970588,8.43117647 C5.17323529,8.64039216 4.48196078,8.745 3.87588235,8.745 L3.87588235,8.745 L3.795,8.745 C2.61088235,8.745 1.67480392,8.35245098 0.986764706,7.56735294 L0.986764706,7.56735294 C0.328921569,6.77147059 -1.43675921e-16,5.74588235 -1.43675921e-16,4.49058824 L-1.43675921e-16,4.49058824 L-1.43675921e-16,1.55294118 C-1.43675921e-16,1.01372549 0.263137255,0.592058824 0.789411765,0.287941176 L0.789411765,0.287941176 C1.00941176,0.186568627 1.26931373,0.135882353 1.56911765,0.135882353 L1.56911765,0.135882353 C1.70715686,0.116470588 1.87215686,0.106764706 2.06411765,0.106764706 L2.06411765,0.106764706 C2.54941176,0.106764706 2.95058824,0.352647059 3.26764706,0.844411765 L3.26764706,0.844411765 C3.38627451,1.04715686 3.44558824,1.35558824 3.44558824,1.76970588 L3.44558824,1.76970588 C3.53617647,3.29460784 3.59333333,4.20156863 3.61705882,4.49058824 L3.61705882,4.49058824 C3.73568627,5.30372549 4.12176471,5.71029412 4.77529412,5.71029412 L4.77529412,5.71029412 C5.03196078,5.71029412 5.29509804,5.65637255 5.56470588,5.54852941 L5.56470588,5.54852941 C5.74372549,5.45794118 5.83323529,5.23686275 5.83323529,4.88529412 L5.83323529,4.88529412 C5.93676471,2.35313725 6.00039216,1.08705882 6.02411765,1.08705882 L6.02411765,1.08705882 C6.09529412,0.804509804 6.2354902,0.568333333 6.44470588,0.378529412 L6.44470588,0.378529412 C6.73156863,0.126176471 7.04,0 7.37,0 Z"/>
                    </g>
                </g>
            </g>
            <g id="编组" transform="translate(0.810310, 15.166865)" fill="#333333">
                <g id="形状">
                    <path d="M0.852882353,0.376411765 L0.852882353,0.376411765 L1.71052941,1.91064706 L1.71052941,1.91064706 L1.72005882,1.91064706 C1.72641176,1.89476471 1.98052941,1.41829412 2.48241176,0.481235294 L2.48241176,0.481235294 C2.51735294,0.411352941 2.53641176,0.376411765 2.53958824,0.376411765 L2.53958824,0.376411765 C3.00017647,0.417705882 3.29717647,0.444705882 3.43058824,0.457411765 L3.43058824,0.457411765 C3.40517647,1.09588235 3.36229412,2.24417647 3.30194118,3.90229412 L3.30194118,3.90229412 C2.70158824,3.83876471 2.39505882,3.80541176 2.38235294,3.80223529 L2.38235294,3.80223529 C2.39188235,3.69105882 2.45223529,3.024 2.56341176,1.80105882 L2.56341176,1.80105882 L2.56341176,1.79629412 L2.56341176,1.79629412 L1.99641176,3.10182353 L1.99641176,3.10658824 L1.46276471,3.10658824 L0.881470588,1.84394118 L0.881470588,1.84394118 L0.881470588,1.85347059 C0.986294118,3.11770588 1.04029412,3.76411765 1.04347059,3.79270588 L1.04347059,3.79270588 L0.142941176,3.93564706 L0.142941176,3.93088235 L0,0.457411765 C0.054,0.451058824 0.338294118,0.424058824 0.852882353,0.376411765 Z M5.184,1.31505882 L5.184,0.366882353 L6.12741176,0.366882353 L6.12741176,1.30552941 C6.12741176,1.31188235 6.12582353,1.31505882 6.12264706,1.31505882 L6.12264706,1.31505882 L5.184,1.31505882 Z M6.24176471,1.61047059 L6.24176471,1.61047059 C6.25764706,3.03988235 6.26558824,3.78952941 6.26558824,3.85941176 L6.26558824,3.85941176 C5.66205882,3.91023529 5.35552941,3.93564706 5.346,3.93564706 L5.346,3.93564706 L5.13635294,1.71529412 C5.16811765,1.71211765 5.53658824,1.67717647 6.24176471,1.61047059 Z M7.97611765,3.888 L8.09047059,1.62476471 L8.09523529,1.62476471 C9.153,1.65652941 9.87088235,1.67876471 10.2488824,1.69147059 L10.2488824,1.69147059 L10.4156471,3.91658824 L10.4108824,3.91658824 C10.3251176,3.91658824 10.017,3.92135294 9.48652941,3.93088235 L9.48652941,3.93088235 L9.48652941,3.93088235 C9.48652941,3.91182353 9.52782353,3.38929412 9.61041176,2.36329412 L9.61041176,2.36329412 L8.93858824,2.349 C8.92588235,2.58088235 8.89888235,3.10976471 8.85758824,3.93564706 L8.85758824,3.93564706 L7.97611765,3.888 Z M14.4704118,1.64382353 L14.4704118,1.64382353 L14.5180588,2.997 L13.365,3.22570588 L13.203,2.68729412 L13.2077647,2.68729412 L13.689,2.60152941 L13.7890588,2.31088235 L13.7842941,2.31088235 C13.7715882,2.31088235 13.5301765,2.33947059 13.0600588,2.39664706 L13.0600588,2.39664706 C12.9520588,3.00017647 12.8964706,3.30511765 12.8932941,3.31147059 L12.8932941,3.31147059 C13.9447059,3.35594118 14.4862941,3.37976471 14.5180588,3.38294118 L14.5180588,3.38294118 L14.337,3.93564706 C12.9584118,3.91658824 12.2198824,3.90705882 12.1214118,3.90705882 L12.1214118,3.90705882 C12.1277647,2.78576471 12.1309412,2.04723529 12.1309412,1.69147059 L12.1309412,1.69147059 C12.1309412,1.66605882 12.1309412,1.65017647 12.1309412,1.64382353 L12.1309412,1.64382353 L12.1357059,1.64382353 C12.6121765,1.64382353 13.3904118,1.64382353 14.4704118,1.64382353 Z M18.3345882,1.64382353 L18.3345882,1.64382353 C18.2615294,2.15523529 18.225,2.41729412 18.225,2.43 L18.225,2.43 C17.4817059,2.37282353 17.1021176,2.34423529 17.0862353,2.34423529 L17.0862353,2.34423529 L17.0862353,2.349 L17.1291176,3.31147059 C17.8406471,3.22252941 18.2424706,3.17329412 18.3345882,3.16376471 L18.3345882,3.16376471 L18.3345882,3.16852941 L18.4489412,3.93564706 C17.1847059,3.92294118 16.4922353,3.91658824 16.3715294,3.91658824 L16.3715294,3.91658824 C16.3683529,3.91658824 16.3429412,3.915 16.2952941,3.91182353 L16.2952941,3.91182353 L16.2238235,1.72958824 C16.3445294,1.72323529 17.0481176,1.69464706 18.3345882,1.64382353 Z M21.1838824,1.58188235 L21.1838824,1.58188235 C21.1965882,1.74070588 21.2029412,1.85347059 21.2029412,1.92017647 L21.2029412,1.92017647 C21.6794118,1.75817647 21.9208235,1.67717647 21.9271765,1.67717647 L21.9271765,1.67717647 L21.9271765,2.41094118 C21.9271765,2.41729412 21.8747647,2.43952941 21.7699412,2.47764706 L21.7699412,2.47764706 C21.4332353,2.61741176 21.2601176,2.68729412 21.2505882,2.68729412 L21.2505882,2.68729412 C21.2505882,2.70635294 21.2744118,3.11294118 21.3220588,3.90705882 L21.3220588,3.90705882 L21.3077647,3.91182353 L20.3024118,3.96423529 L20.2976471,3.95470588 L20.1880588,1.62952941 L20.1928235,1.62476471 C20.2150588,1.62476471 20.5454118,1.61047059 21.1838824,1.58188235 Z M23.6424706,2.03929412 L23.6424706,1.58664706 L26.0629412,1.58664706 C26.0565882,1.99323529 26.0534118,2.22988235 26.0534118,2.29658824 L26.0534118,2.29658824 L26.0486471,2.29658824 C26.0486471,2.29976471 26.0502353,2.30135294 26.0534118,2.30135294 L26.0534118,2.30135294 C26.0502353,2.32676471 26.0486471,2.34105882 26.0486471,2.34423529 L26.0486471,2.34423529 C26.0486471,2.40458824 26.0422941,2.73494118 26.0295882,3.33529412 L26.0295882,3.33529412 L26.2630588,3.32576471 L26.2821176,3.90705882 C25.5165882,3.92611765 24.9734118,3.93564706 24.6525882,3.93564706 L24.6525882,3.93564706 L24.5715882,3.93564706 C24.2857059,3.93564706 23.9855294,3.92770588 23.6710588,3.91182353 L23.6710588,3.91182353 L23.6377059,2.30135294 L25.2624706,2.30135294 L25.2862941,2.12505882 C24.2253529,2.07423529 23.679,2.04882353 23.6472353,2.04882353 L23.6472353,2.04882353 L23.6424706,2.03929412 Z M24.4667647,2.86358824 L24.4667647,2.86358824 L24.4667647,3.39247059 C24.8606471,3.39882353 25.0877647,3.402 25.1481176,3.402 L25.1481176,3.402 C25.1481176,3.37976471 25.1481176,3.36705882 25.1481176,3.36388235 L25.1481176,3.36388235 C25.1481176,3.31305882 25.1433529,3.15105882 25.1338235,2.87788235 L25.1338235,2.87788235 C24.7653529,2.86835294 24.543,2.86358824 24.4667647,2.86358824 Z M28.431,0.481235294 L29.9318824,0.438352941 C29.9255294,0.841764706 29.9223529,1.08794118 29.9223529,1.17688235 L29.9223529,1.17688235 L29.4411176,1.23405882 C29.4474706,1.43417647 29.4522353,1.57076471 29.4554118,1.64382353 L29.4554118,1.64382353 C29.4681176,1.64382353 29.6237647,1.65335294 29.9223529,1.67241176 L29.9223529,1.67241176 C29.9223529,1.67241176 29.9223529,1.67241176 29.9223529,1.67241176 L29.9223529,1.67241176 C29.9223529,1.68194118 29.9048824,1.95988235 29.8699412,2.50623529 L29.8699412,2.50623529 C29.619,2.49352941 29.4887647,2.48717647 29.4792353,2.48717647 L29.4792353,2.48717647 L29.5221176,3.88323529 L29.5173529,3.88323529 C29.5141765,3.88323529 29.511,3.88323529 29.5078235,3.88323529 L29.5078235,3.88323529 L28.5215294,3.93564706 L28.5215294,3.93088235 L28.4786471,2.43952941 L27.9878824,2.41570588 C27.9910588,2.37441176 28.0148824,2.09011765 28.0593529,1.56282353 L28.0593529,1.56282353 L28.0641176,1.56282353 L28.4595882,1.58188235 C28.4405294,0.924352941 28.431,0.563823529 28.431,0.500294118 L28.431,0.500294118 L28.4262353,0.486 L28.431,0.481235294 Z M32.0617059,1.01488235 L32.0664706,1.01011765 L33.0194118,1.01011765 C33.0098824,1.39447059 33.0051176,1.60252941 33.0051176,1.63429412 L33.0051176,1.63429412 C33.0019412,1.64064706 33.0003529,1.64382353 33.0003529,1.64382353 L33.0003529,1.64382353 L33.372,1.66288235 L33.3243529,2.49194118 L32.9765294,2.47288235 L32.9622353,3.09705882 C33.2258824,3.19235294 33.3656471,3.24476471 33.3815294,3.25429412 L33.3815294,3.25429412 C33.1909412,3.70535294 33.0956471,3.93247059 33.0956471,3.93564706 L33.0956471,3.93564706 C32.9971765,3.91023529 32.6366471,3.81176471 32.0140588,3.64023529 L32.0140588,3.64023529 L32.0140588,3.64023529 L32.0331176,2.42047059 L32.0283529,2.42047059 C31.9934118,2.42047059 31.8647647,2.41252941 31.6424118,2.39664706 L31.6424118,2.39664706 C31.6519412,2.12664706 31.6630588,1.85823529 31.6757647,1.59141176 L31.6757647,1.59141176 L31.6900588,1.59141176 L32.0521765,1.60570588 C32.0585294,1.25629412 32.0617059,1.05935294 32.0617059,1.01488235 L32.0617059,1.01488235 Z M37.5554118,0.800470588 L37.6554706,0.147705882 C38.1255882,0.211235294 38.3685882,0.243 38.3844706,0.243 L38.3844706,0.243 L38.3844706,0.243 C38.3304706,0.640058824 38.3034706,0.846529412 38.3034706,0.862411765 L38.3034706,0.862411765 L38.3082353,0.862411765 C38.4035294,0.868764706 38.7052941,0.891 39.2135294,0.929117647 L39.2135294,0.929117647 L39.2135294,2.19176471 L39.4374706,2.12505882 L39.5089412,2.79688235 L39.2135294,2.90170588 L39.2135294,3.726 C39.2135294,3.72917647 39.1341176,3.88005882 38.9752941,4.17864706 L38.9752941,4.17864706 C38.9085882,4.30252941 38.8736471,4.36447059 38.8704706,4.36447059 L38.8704706,4.36447059 C38.8577647,4.35811765 38.6020588,4.25805882 38.1033529,4.06429412 L38.1033529,4.06429412 L38.1033529,4.05476471 C38.2685294,3.71488235 38.3511176,3.54176471 38.3511176,3.53541176 L38.3511176,3.53541176 C38.3955882,2.38552941 38.4178235,1.78676471 38.4178235,1.73911765 L38.4178235,1.73911765 L38.4130588,1.73911765 C38.3463529,1.72958824 38.2732941,1.72482353 38.1938824,1.72482353 L38.1938824,1.72482353 L37.9699412,3.42105882 C37.9604118,3.44329412 37.8127059,3.78158824 37.5268235,4.43594118 L37.5268235,4.43594118 L37.5220588,4.43594118 C37.0519412,4.27711765 36.8152941,4.19770588 36.8121176,4.19770588 L36.8121176,4.19770588 C37.0503529,3.58782353 37.1726471,3.27335294 37.179,3.25429412 L37.179,3.25429412 L37.422,1.66764706 L37.4172353,1.66764706 C36.9947647,1.63588235 36.7692353,1.62 36.7406471,1.62 L36.7406471,1.62 L36.7358824,1.61523529 C36.7803529,1.09429412 36.8073529,0.805235294 36.8168824,0.748058824 L36.8168824,0.748058824 C37.179,0.776647059 37.4251765,0.795705882 37.5554118,0.805235294 L37.5554118,0.805235294 L37.5554118,0.800470588 Z M35.5542353,1.50088235 L35.5542353,0.243 C35.7638824,0.243 36.045,0.244588235 36.3975882,0.247764706 L36.3975882,0.247764706 L36.3975882,1.45323529 C36.5532353,1.44370588 36.6517059,1.43894118 36.693,1.43894118 L36.693,1.43894118 L36.693,1.43894118 L36.7358824,2.25847059 L36.3975882,2.25847059 L36.3975882,4.34064706 L35.559,4.34064706 C35.5558235,4.34064706 35.5542353,4.33905882 35.5542353,4.33588235 L35.5542353,4.33588235 L35.5542353,2.25847059 L35.2778824,2.25847059 L35.2826471,2.24894118 L35.2826471,1.51517647 C35.4128824,1.512 35.5034118,1.50723529 35.5542353,1.50088235 L35.5542353,1.50088235 Z M36.8931176,2.25847059 L36.8931176,2.25847059 C37.0773529,2.45541176 37.1694706,2.55547059 37.1694706,2.55864706 L37.1694706,2.55864706 L36.9836471,3.03035294 L36.9788824,3.03035294 C36.9788824,3.02717647 36.8899412,2.93664706 36.7120588,2.75876471 L36.7120588,2.75876471 C36.6993529,2.74923529 36.6342353,2.68252941 36.5167059,2.55864706 L36.5167059,2.55864706 C36.5325882,2.54276471 36.6580588,2.44270588 36.8931176,2.25847059 Z M41.6006471,0.848117647 L42.1390588,0.195352941 C42.6091765,0.513 42.8664706,0.687705882 42.9109412,0.719470588 L42.9109412,0.719470588 C42.5742353,1.13876471 42.4011176,1.35158824 42.3915882,1.35794118 L42.3915882,1.35794118 L42.3868235,1.35794118 L41.6006471,0.852882353 L41.6006471,0.848117647 Z M44.0211176,0.466941176 L44.0211176,0.466941176 C44.0274706,0.466941176 44.2418824,0.567 44.6643529,0.767117647 L44.6643529,0.767117647 C44.6802353,0.773470588 44.6881765,0.778235294 44.6881765,0.781411765 L44.6881765,0.781411765 C44.4181765,1.21976471 44.2831765,1.44052941 44.2831765,1.44370588 L44.2831765,1.44370588 L44.2784118,1.44370588 L43.6208824,1.00058824 C43.8400588,0.705176471 43.9734706,0.527294118 44.0211176,0.466941176 Z M44.9788235,0.943411765 L44.9788235,0.943411765 C44.9851765,0.943411765 45.2662941,1.02441176 45.8221765,1.18641176 L45.8221765,1.18641176 L45.2361176,2.89217647 L45.8221765,3.44488235 C45.5013529,3.84829412 45.3409412,4.05 45.3409412,4.05 L45.3409412,4.05 L44.7501176,3.62117647 L44.7453529,3.62117647 L44.1545294,4.43594118 C43.6844118,4.19135294 43.4080588,4.04682353 43.3254706,4.00235294 L43.3254706,4.00235294 L43.3254706,3.99758824 C43.3826471,3.92135294 43.6272353,3.57829412 44.0592353,2.96841176 L44.0592353,2.96841176 C44.0655882,2.96205882 44.0798824,2.943 44.1021176,2.91123529 L44.1021176,2.91123529 C43.7844706,2.59676471 43.497,2.30929412 43.2397059,2.04882353 L43.2397059,2.04882353 L43.7161765,1.52947059 C44.1322941,1.917 44.3991176,2.16158824 44.5166471,2.26323529 L44.5166471,2.26323529 C44.8247647,1.38652941 44.9788235,0.946588235 44.9788235,0.943411765 Z M41.6006471,2.25847059 L41.6006471,1.44370588 L42.768,1.44370588 C42.7489412,2.80323529 42.7394118,3.54335294 42.7394118,3.66405882 L42.7394118,3.66405882 L42.7346471,3.68311765 L43.1205882,3.68311765 L43.1205882,4.33588235 L41.8865294,4.33588235 C41.8865294,4.33588235 41.8881176,4.32794118 41.8912941,4.31205882 L41.8912941,4.31205882 L41.9389412,2.29658824 C41.9421176,2.27752941 41.9437059,2.26482353 41.9437059,2.25847059 L41.9437059,2.25847059 L41.6006471,2.25847059 Z M49.5434118,0.0476470588 L50.7393529,0 L50.7917647,0.324 C51.7034118,0.285882353 52.1798824,0.266823529 52.2211765,0.266823529 L52.2211765,0.266823529 L52.2211765,1.11017647 C52.2211765,1.11652941 52.2195882,1.11970588 52.2164118,1.11970588 L52.2164118,1.11970588 C52.1306471,1.12288235 51.1125882,1.16735294 49.1622353,1.25311765 L49.1622353,1.25311765 C49.1336471,2.48876471 49.1193529,3.11929412 49.1193529,3.14470588 L49.1193529,3.14470588 C48.9891176,3.56717647 48.8811176,3.91817647 48.7953529,4.19770588 L48.7953529,4.19770588 C48.7159412,4.185 48.3935294,4.13258824 47.8281176,4.04047059 L47.8281176,4.04047059 C47.8662353,3.92611765 47.9837647,3.57829412 48.1807059,2.997 L48.1807059,2.997 C48.2315294,1.32617647 48.2569412,0.473294118 48.2569412,0.438352941 L48.2569412,0.438352941 L48.2617059,0.424058824 C48.9605294,0.392294118 49.4052353,0.373235294 49.5958235,0.366882353 L49.5958235,0.366882353 L49.5958235,0.366882353 L49.5386471,0.0476470588 L49.5434118,0.0476470588 Z M49.896,1.53423529 L49.9674706,1.38176471 L50.7298235,1.43894118 L50.7298235,1.44847059 L50.6964706,1.53423529 L50.6964706,1.53423529 L52.1687647,1.44370588 L52.1687647,1.44847059 L52.2164118,2.09647059 C52.2195882,2.09647059 52.2211765,2.09647059 52.2211765,2.09647059 L52.2211765,2.09647059 C52.1894118,2.09964706 51.5874706,2.12347059 50.4153529,2.16794118 L50.4153529,2.16794118 L50.2057059,2.64917647 C50.2088824,2.65235294 50.2104706,2.65394118 50.2104706,2.65394118 L50.2104706,2.65394118 C50.2612941,2.65394118 50.3947059,2.65711765 50.6107059,2.66347059 L50.6107059,2.66347059 L50.6107059,2.65870588 C50.6107059,2.59835294 50.6091176,2.51417647 50.6059412,2.40617647 L50.6059412,2.40617647 L51.4254706,2.40617647 C51.4254706,2.43794118 51.4270588,2.53164706 51.4302353,2.68729412 L51.4302353,2.68729412 C51.4778824,2.68729412 51.7113529,2.69364706 52.1306471,2.70635294 L52.1306471,2.70635294 L52.1306471,3.23523529 L51.4445294,3.23523529 L51.4492941,3.25905882 C51.4492941,3.29082353 51.4508824,3.36070588 51.4540588,3.46870588 L51.4540588,3.46870588 L51.4540588,3.46870588 C51.921,3.45282353 52.1703529,3.44488235 52.2021176,3.44488235 L52.2021176,3.44488235 L52.2164118,3.44011765 L52.2211765,3.44488235 L52.2211765,4.05476471 C52.2211765,4.06111765 52.2195882,4.06429412 52.2164118,4.06429412 L52.2164118,4.06429412 L51.4635882,4.08811765 C51.4699412,4.212 51.4731176,4.28982353 51.4731176,4.32158824 L51.4731176,4.32158824 L50.6297647,4.32158824 L50.6297647,4.19770588 C50.6297647,4.17864706 50.6281765,4.15164706 50.625,4.11670588 L50.625,4.11670588 L49.3909412,4.15958824 C49.3909412,4.15958824 49.3909412,4.15958824 49.3909412,4.15958824 L49.3909412,4.15958824 C49.356,3.77205882 49.3385294,3.57035294 49.3385294,3.55447059 L49.3385294,3.55447059 L49.3432941,3.55447059 C50.1405882,3.51952941 50.5646471,3.50205882 50.6154706,3.50205882 L50.6154706,3.50205882 L50.6202353,3.49729412 L50.6202353,3.45441176 C50.6202353,3.40358824 50.6186471,3.33052941 50.6154706,3.23523529 L50.6154706,3.23523529 L49.4624118,3.23523529 L49.3385294,2.69205882 L49.572,2.20605882 L49.572,2.20129412 C49.5497647,2.20129412 49.4894118,2.20447059 49.3909412,2.21082353 L49.3909412,2.21082353 C49.356,1.836 49.3385294,1.63747059 49.3385294,1.61523529 L49.3385294,1.61523529 C49.6498235,1.59617647 49.8245294,1.58664706 49.8626471,1.58664706 L49.8626471,1.58664706 C49.869,1.58664706 49.8801176,1.56917647 49.896,1.53423529 L49.896,1.53423529 Z"/>
                </g>
            </g>
        </g>
    </g>
</svg>